<svg id="Objects" xmlns="http://www.w3.org/2000/svg" viewBox="0 0 192.29 209.14"><defs><style>.cls-1{fill:#066c62;}.cls-2{fill:#00a69c;}</style></defs><title>file</title><path class="cls-1" d="M411.84,334.19c-.14,2.86-.31,5.72-.53,8.58-.11,1.34-.22,2.67-.34,4-.06.52-.11,1-.17,1.56-.56,4.86-1.24,9.72-2.19,14.52-.27,1.38-.58,2.76-.9,4.14,0-.15-.11-.29-.16-.44-2.41-6.72-4.37-13.59-6.1-20.52-3.94-15.75-6.53-31.78-10.26-47.57-1.89-8-3.84-16.21-7.15-23.77-3-6.82-6.64-13.47-14.36-15.67-14.72-4.19-21,13.62-23.9,24.2-3.46,12.41-3.55,24.48-5.43,37.84-.35,2.42-3.6,27.88-4.13,30.28-4-16.4-6.64-56.53-13.58-71.92l-.17-.36,55-34.49c5.71-3.58,13.61-5.31,21.28-5.1.25.45.5.9.74,1.37s.41.81.61,1.22c.9,2,1.73,4.11,2.47,6.21A136.22,136.22,0,0,1,407,263.63c.63,2.79,1.2,5.6,1.69,8.42a.08.08,0,0,1,0,0c.1.61.2,1.22.29,1.84.23,1.48.45,3,.64,4.45q1.23,9.14,1.84,18.34A323.06,323.06,0,0,1,411.84,334.19Z" transform="translate(-303.73 -239.46)"/><path class="cls-1" d="M436.58,295.08c-1-14.42-2.67-29.7-6.59-44.15l45.07,24.18c10.45,5.58,18,18.19,18.36,30.39l.36,4.79L422,406.7c5.75-4.45,9.54-30.63,11-38.2C437.71,344.54,438.33,319.37,436.58,295.08Z" transform="translate(-303.73 -239.46)"/><path class="cls-2" d="M478.69,407.59l-57.17,35.89c-10,6.29-26.77,6.87-37.22,1.29l-59-31.86c-10.46-5.59-18.75-19.87-19.16-31.71l-2.35-67.84A32.88,32.88,0,0,1,305,301.82c2.79,10,4.54,20.24,7,30.35,1.85,7.66,7,32,10.35,39.22,2.82,6.14,6.77,10.08,14.29,11.28,8.07,1.28,13.27-6.55,17.06-13.48l20.14-34.84c2.49,12.15,5.71,24.1,9.15,36,2.44,8.4,7.11,30.32,14.73,36,9.9,7.35,22,3.34,28.89-6.38l67.15-89.66L496,374.62C496.42,386.46,488.73,401.3,478.69,407.59Z" transform="translate(-303.73 -239.46)"/><path class="cls-1" d="M362.37,328c1.58-8.87,2.26-17.37,4.25-26.13,1.73,6.74,3.18,13.57,4.56,20.39.92,4.58,3.59,16,4.53,20.61L350.79,374.1C356.78,364.36,360,341.46,362.37,328Z" transform="translate(-303.73 -239.46)"/></svg>
